<?xml version="1.0" encoding="UTF-8"?>
<svg width="100%" height="100%" viewBox="0 0 415 523" preserveAspectRatio="none" version="1.1" xmlns="http://www.w3.org/2000/svg" xmlns:xlink="http://www.w3.org/1999/xlink">
    <!-- Generator: Sketch 64 (93537) - https://sketch.com -->
    <title>Rectangle</title>
    <desc>Created with Sketch.</desc>
    <g id="Page-1" stroke="none" stroke-width="1" fill="none" fill-rule="evenodd">
        <g id="Landing-Page-2" transform="translate(-513.000000, -251.000000)" fill="#FFFFFF" stroke="#190500" stroke-width="3">
            <g id="Group" transform="translate(516.000000, 254.000000)">
                <g id="Group-5" transform="translate(0.000000, 0.000000)">
                    <g id="cards/white-s" transform="translate(0.000000, 0.000000)">
                        <path d="M128.752206,-1.43474132 C128.044686,-1.48027901 127.334967,-1.48016756 126.627461,-1.43440765 L18.4597775,5.56163937 C14.0024223,5.84993126 10.064552,7.88573765 7.2819621,10.9653874 C4.49937224,14.0450371 2.87206291,18.1685302 3.03582985,22.6321955 L9.26726475,192.47746 C9.28512219,192.964186 9.27662638,193.451522 9.24181458,193.937329 L-1.44471356,343.070659 C-1.48242194,343.596889 -1.49486967,344.124625 -1.48201386,344.652049 L2.14341811,493.056552 C2.39784738,497.615797 4.47949049,501.637997 7.6371424,504.453374 C10.7889875,507.263573 15.0128877,508.871385 19.5617744,508.610718 L126.568076,502.47889 C127.29158,502.437431 128.017247,502.454296 128.738043,502.529322 L280.767332,518.353752 C281.738988,518.45489 282.717705,518.469536 283.691952,518.397517 L390.864815,510.475073 C395.023588,510.167648 398.740695,508.332688 401.467674,505.533234 C404.194652,502.733779 405.931502,498.96983 406.129761,494.804425 L410.462094,403.782243 C410.488631,403.224702 410.486859,402.666173 410.456786,402.108812 L397.897115,169.331797 C397.872517,168.875906 397.871061,168.419062 397.892754,167.963024 L404.676011,25.358409 C404.71328,24.5748974 404.69463,23.7897255 404.620204,23.008867 C404.187883,18.4730742 401.957996,14.5419175 398.702241,11.8527893 C395.446486,9.16366121 391.164863,7.71656164 386.629071,8.14888319 L343.775547,12.2333955 C343.061554,12.3014486 342.343273,12.312494 341.627524,12.2664267 L128.752206,-1.43474132 Z" id="Rectangle"></path>
                    </g>
                </g>
            </g>
        </g>
    </g>
</svg>