<?xml version="1.0" encoding="UTF-8"?>
<svg width="409px" height="517px" viewBox="0 0 409 517" version="1.1" xmlns="http://www.w3.org/2000/svg" xmlns:xlink="http://www.w3.org/1999/xlink">
    <!-- Generator: Sketch 64 (93537) - https://sketch.com -->
    <title>Rectangle</title>
    <desc>Created with Sketch.</desc>
    <g id="Page-1" stroke="none" stroke-width="1" fill="none" fill-rule="evenodd">
        <g id="Landing-Page-2" transform="translate(-516.000000, -254.000000)" fill="#FFFFFF">
            <g id="Group" transform="translate(516.000000, 254.000000)">
                <g id="Group-5" transform="translate(0.000000, 0.000000)">
                    <g id="cards/white-s" transform="translate(0.000000, 0.000000)">
                        <path d="M18.5565919,7.05851176 L126.724275,0.0624647482 C127.367462,0.0208648312 128.012662,0.0207635099 128.655862,0.0621614142 L341.53118,13.7633294 C342.326456,13.8145153 343.124546,13.8022427 343.917872,13.7266281 L386.771396,9.64211579 C395.018292,8.85607661 402.340932,14.904296 403.126971,23.151192 C403.194632,23.8610634 403.211586,24.574856 403.177705,25.2871392 L396.394448,167.891754 C396.370345,168.398463 396.371962,168.906068 396.399293,169.412613 L408.958965,402.189628 C408.986304,402.69632 408.987914,403.204073 408.96379,403.710929 L404.631457,494.733111 C404.270987,502.306574 398.315639,508.4202 390.754233,508.979155 L283.58137,516.901599 C282.695692,516.96707 281.805948,516.953756 280.922625,516.861812 L128.893336,501.037383 C128.092452,500.95402 127.286155,500.935281 126.482262,500.981347 L19.4759601,507.113174 C11.2052569,507.587114 4.11632322,501.266588 3.64238358,492.995885 C3.63298072,492.831796 3.62627544,492.667564 3.62227043,492.503255 L0.0175407453,344.615497 C0.00585364004,344.136022 0.0171697619,343.656261 0.0514501094,343.17787 L10.7379782,194.044541 C10.776658,193.504754 10.7860978,192.96327 10.7662562,192.422463 L4.53482131,22.5771991 C4.23706324,14.4614441 10.4523098,7.58267884 18.5565919,7.05851176 Z" id="Rectangle"></path>
                    </g>
                </g>
            </g>
        </g>
    </g>
</svg>