<?xml version="1.0" encoding="UTF-8"?>
<svg width="68px" height="40px" viewBox="0 0 68 40" version="1.1" xmlns="http://www.w3.org/2000/svg" xmlns:xlink="http://www.w3.org/1999/xlink">
    <!-- Generator: Sketch 64 (93537) - https://sketch.com -->
    <title>Group 6</title>
    <desc>Created with Sketch.</desc>
    <defs>
        <polygon id="path-1" points="0 0.287102239 55.5567471 0.287102239 55.5567471 36.6066713 0 36.6066713"></polygon>
    </defs>
    <g id="Page-1" stroke="none" stroke-width="1" fill="none" fill-rule="evenodd">
        <g id="Landing-Page-2" transform="translate(-835.000000, -711.000000)">
            <g id="Group" transform="translate(516.000000, 254.000000)">
                <g id="Group-5" transform="translate(0.000000, 0.000000)">
                    <g id="Group-6" transform="translate(352.500000, 476.500000) scale(-1, 1) rotate(4.000000) translate(-352.500000, -476.500000) translate(318.000000, 458.000000)">
                        <g id="Group-3">
                            <mask id="mask-2" fill="white">
                                <use xlink:href="#path-1"></use>
                            </mask>
                            <g id="Clip-2"></g>
                            <path d="M53.8767081,33.5872893 C50.5214108,33.9355036 47.1661135,33.9563964 43.8108162,33.9048607 C40.4555189,33.8686464 37.1002216,33.7182179 33.7449243,33.5886821 C32.0333838,33.521825 30.3218432,33.4521821 28.6118432,33.3964679 C28.6426541,30.2374679 28.7011946,27.0784679 29.0539784,23.9361821 C29.1541135,23.0391821 29.2727351,22.1421821 29.3528432,21.2437893 C29.7010054,21.3190036 30.0537892,21.3747179 30.4081135,21.3914321 C32.2567622,21.480575 34.0730595,20.8510036 35.633627,19.9540036 C36.9538703,19.1976821 38.1863027,18.1725393 38.6361405,16.8186821 C38.9165189,15.9773964 38.8718432,15.0817893 38.8240865,14.2056821 C38.6977622,11.9018964 38.5714378,9.59811071 38.4466541,7.294325 C38.3958162,6.34996786 38.3388162,5.38193214 37.9228703,4.515575 C37.5053838,3.647825 36.6457622,2.89011071 35.6043568,2.81489643 C34.4335459,2.731325 33.3644108,3.53500357 32.8683568,4.49746786 C32.3738432,5.45993214 32.3291676,6.55471786 32.2937351,7.616075 C32.2351946,9.32928929 32.1781946,11.0438964 32.1196541,12.7585036 C32.099627,13.368575 32.0133568,14.0872893 31.4264108,14.3937179 C31.1568162,14.5343964 30.8317622,14.5538964 30.520573,14.5692179 C30.0044919,14.5942893 29.4529784,14.567825 28.9091676,14.567825 C28.8814378,14.2432893 28.8598703,13.9201464 28.8552486,13.5942179 C28.8074919,10.4449679 30.0784378,7.34028929 29.7857351,4.19939643 C29.7117892,3.41661071 29.5269243,2.61293214 29.0077622,1.98196786 C28.6010595,1.48750357 28.0171946,1.13650357 27.4071405,0.860717857 C26.0899784,0.261789286 24.4200324,-6.78571429e-05 23.1891405,0.733967857 C22.2756,1.27996786 21.8026541,2.253575 21.4883838,3.20211071 C19.5827351,8.932325 21.8026541,15.0622893 21.7287081,21.0473964 C21.7086811,22.6060036 21.5330595,24.1590393 21.4159784,25.7162536 C21.2264919,28.227575 21.3990324,30.7709321 21.2958162,33.2794679 C18.7338973,33.2920036 16.1735189,33.385325 13.6131405,33.4716821 C12.7812486,33.5009321 11.9200865,33.531575 11.1128432,33.5441107 C10.4165189,33.5580393 9.72327568,33.4675036 9.05622162,33.2933964 C7.72057297,32.9451821 6.50662703,32.2222893 5.59462703,31.2640036 C4.67646486,30.3085036 4.0926,29.1064679 3.90619459,27.857075 C3.85381622,27.5408964 3.84457297,27.2358607 3.83995135,26.9029679 L3.85381622,25.7650036 L3.88462703,23.4904679 C3.99862703,17.4231821 4.20814054,11.3558964 4.70727568,5.28861071 C4.71497838,5.188325 4.71497838,5.07411071 4.70727568,4.97243214 C4.61176216,3.79825357 3.47946486,2.91796786 2.18078919,3.00571786 C0.885194595,3.092075 -0.0899675676,4.11443214 0.00554594595,5.28861071 C0.504681081,11.3558964 0.714194595,17.4231821 0.828194595,23.4904679 L0.859005405,25.7650036 L0.874410811,26.9029679 C0.880572973,27.3277893 0.899059459,27.7818607 0.971464865,28.217825 C1.23181622,29.9742179 2.07603243,31.6526107 3.33927568,33.0022893 C4.60251892,34.3575393 6.30173514,35.3687536 8.17965405,35.8994321 C9.11784324,36.1682536 10.097627,36.3075393 11.0804919,36.3367893 L13.6131405,36.4106107 C16.9684378,36.5234321 20.3237351,36.6529679 23.6790324,36.5902893 C27.0343297,36.5693964 30.389627,36.4245393 33.7449243,36.2936107 C37.1002216,36.1654679 40.4555189,36.0150393 43.8108162,35.9802179 C47.1661135,35.9272893 50.5214108,35.9467893 53.8767081,36.2950036 C53.9860865,36.3061464 54.1062486,36.3075393 54.2217892,36.2950036 C55.0490595,36.2100393 55.6421676,35.5331107 55.5466541,34.7851464 C55.4511405,34.038575 54.7039784,33.5009321 53.8767081,33.5872893" id="Fill-1" fill="#929AA1" mask="url(#mask-2)"></path>
                        </g>
                        <path d="M68.6449522,33.9061669 C68.396217,33.746263 68.1474817,33.6505725 67.8971721,33.5448093 L67.1509663,33.2212243 C66.6519214,33.0323615 66.1560251,32.8699395 65.6585546,33.1519746 C65.1595097,33.4012736 64.6620392,33.2199653 64.1629943,33.1620473 C63.9142591,33.1393838 63.6655238,33.1645655 63.4167885,33.2136698 C63.1680532,33.2640332 62.9177437,33.3320239 62.6690084,33.4705233 C62.5241752,33.5536229 62.3887876,33.658127 62.2833113,33.7802583 C61.787415,34.349365 61.9590108,35.1312571 62.6690084,35.527869 C62.9177437,35.6663685 63.1680532,35.7356182 63.4167885,35.7859816 C63.6655238,35.8338268 63.9142591,35.8615267 64.1629943,35.8376041 C64.6620392,35.7796862 65.1595097,35.5996369 65.6585546,35.8476768 C66.1560251,36.1297119 66.6519214,35.968549 67.1509663,35.7784271 L67.8971721,35.4548421 C68.1474817,35.3490789 68.396217,35.2533884 68.6449522,35.0922254 C68.695329,35.0607483 68.7457058,35.0204576 68.7882112,34.9789077 C69.1188087,34.6515455 69.0558377,34.1705748 68.6449522,33.9061669" id="Fill-4" fill="#E91414"></path>
                    </g>
                </g>
            </g>
        </g>
    </g>
</svg>