<?xml version="1.0" encoding="UTF-8"?>
<svg width="83px" height="88px" viewBox="0 0 83 88" version="1.1" xmlns="http://www.w3.org/2000/svg" xmlns:xlink="http://www.w3.org/1999/xlink">
    <!-- Generator: Sketch 64 (93537) - https://sketch.com -->
    <title>Group 8</title>
    <desc>Created with Sketch.</desc>
    <defs>
        <polygon id="path-1" points="0.376901552 0.182159455 25.3722724 0.182159455 25.3722724 5.34398105 0.376901552 5.34398105"></polygon>
    </defs>
    <g id="Page-1" stroke="none" stroke-width="1" fill="none" fill-rule="evenodd">
        <g id="Landing-Page-2" transform="translate(-539.000000, -272.000000)">
            <g id="Group" transform="translate(516.000000, 254.000000)">
                <g id="Group-5" transform="translate(0.000000, 0.000000)">
                    <g id="Group-8" transform="translate(66.039940, 61.431022) rotate(-3.000000) translate(-66.039940, -61.431022) translate(23.539940, 18.431022)">
                        <g id="Group-3" transform="translate(58.539108, 1.035368)">
                            <mask id="mask-2" fill="white">
                                <use xlink:href="#path-1"></use>
                            </mask>
                            <g id="Clip-2"></g>
                            <path d="M2.99728746,0.217542857 C4.69110824,0.5484 6.38343799,0.738685714 8.07725878,0.874114286 C9.76958853,1.01811429 11.4634093,1.09011429 13.1557391,1.12611429 C14.8495599,1.1484 16.5418896,1.15354286 18.2357104,1.08154286 C19.9280401,1.0164 21.6218609,0.9084 23.3141907,0.670114286 C24.3206423,0.527828571 25.2346495,1.35068571 25.3584057,2.5044 C25.482162,3.66154286 24.7664631,4.7124 23.7615025,4.85468571 C23.6138896,4.87525714 23.4573305,4.87354286 23.3141907,4.85468571 C21.6218609,4.61468571 19.9280401,4.50668571 18.2357104,4.44325714 C16.5418896,4.37125714 14.8495599,4.37468571 13.1557391,4.39868571 C11.4634093,4.43468571 9.76958853,4.50668571 8.07725878,4.65068571 C6.38343799,4.78782857 4.69110824,4.9764 2.99728746,5.30725714 C1.77463513,5.54554286 0.616097491,4.59925714 0.408843011,3.19354286 C0.20158853,1.78954286 1.02464229,0.455828571 2.24729462,0.217542857 C2.49928029,0.167828571 2.75872115,0.172971429 2.99728746,0.217542857" id="Fill-1" fill="#E91414" mask="url(#mask-2)"></path>
                        </g>
                        <path d="M1.23540465,67.5223924 C1.69242793,63.1380961 1.70007046,58.7537998 1.62211666,54.371173 C1.56097642,49.9852071 1.35157111,45.6009107 1.18649246,41.218284 C0.998486233,36.8339876 0.868563228,32.4496913 0.850221157,28.0637254 C0.824236556,23.6810986 1.05656946,19.2968022 1.1696789,14.9125059 L1.19872051,14.0192848 C1.21400557,13.698727 1.24457569,13.3781691 1.27973133,13.0592809 C1.34698559,12.4215043 1.47079457,11.7904061 1.62364516,11.1709948 C1.94310291,9.93384188 2.41999676,8.74677612 3.05126972,7.66656297 C4.3077016,5.50112795 6.16942184,3.77812954 8.31697269,2.75468184 C9.39304087,2.24212321 10.5394203,1.91154793 11.7041419,1.77130387 C11.994558,1.74125157 12.2865026,1.7095297 12.5784473,1.70285142 L13.3885554,1.68782527 L14.8941338,1.67279912 L20.9149187,1.5843118 C28.9426319,1.43071116 36.9703451,1.18027535 44.9965298,0.614290405 C46.4730666,0.510776935 47.7478405,1.73290371 47.8426079,3.34571037 C47.9373752,4.95684745 46.8185089,6.34760101 45.3419722,6.45278405 C45.2319197,6.45946234 45.1065822,6.45946234 44.9965298,6.45278405 C36.9703451,5.88679911 28.9426319,5.63636329 20.9149187,5.48276266 L14.8941338,5.39594491 L13.3885554,5.37757962 L13.0125429,5.37424047 L12.6930852,5.38258833 C12.4836799,5.3842579 12.2758031,5.40930149 12.0679263,5.42933635 C11.236419,5.5278411 10.4217254,5.75991163 9.6559439,6.12220877 C8.11979542,6.84012478 6.80375181,8.10232129 5.92027537,9.64500591 C5.47548014,10.4163482 5.14379435,11.2628213 4.94050306,12.1426858 C4.84267868,12.5834528 4.76319637,13.0292286 4.72651223,13.4816826 C4.70969866,13.7070748 4.69747062,13.9341366 4.69747062,14.1611984 L4.69747062,14.5017912 L4.70664165,14.9125059 C4.8212796,19.2968022 5.052084,23.6810986 5.02609939,28.0637254 C5.00928583,32.4496913 4.87783432,36.8339876 4.68982809,41.218284 C4.52627795,45.6009107 4.31534413,49.9852071 4.25420389,54.371173 C4.17625009,58.7537998 4.18389262,63.1380961 4.6424444,67.5223924 C4.74943982,68.5508489 4.07231169,69.4774614 3.13228053,69.596001 C2.19072087,69.712871 1.34240007,68.9749202 1.23540465,67.9464638 C1.2201196,67.8062197 1.2216481,67.6576278 1.23540465,67.5223924" id="Fill-4" fill="#929AA1"></path>
                        <path d="M2.59687468,85.1696907 C2.38299816,84.8855308 2.25555119,84.601371 2.11345514,84.3172111 L1.68277228,83.4631615 C1.43080815,82.8932718 1.21400181,82.3249521 1.59048309,81.7550624 C1.92301714,81.1851727 1.68130737,80.6168529 1.60366726,80.0469632 C1.5729042,79.7628033 1.60806198,79.4786435 1.67251792,79.1944836 C1.74136858,78.9087538 1.83072795,78.6245939 2.01677123,78.340434 C2.54560291,77.5287729 3.5900821,77.33096 4.34743939,77.8992797 C4.51004414,78.0217354 4.65067528,78.1755899 4.75907845,78.340434 C4.94512173,78.6245939 5.03594601,78.9087538 5.10186685,79.1944836 C5.1677877,79.4786435 5.20294548,79.7628033 5.17071751,80.0469632 C5.09454231,80.6168529 4.85283254,81.1851727 5.18536659,81.7550624 C5.56038296,82.3249521 5.34504153,82.8932718 5.09307741,83.4631615 L4.66092963,84.3172111 C4.52029849,84.601371 4.39285152,84.8855308 4.178975,85.1696907 C3.82593224,85.637534 3.18576758,85.7113214 2.74922508,85.3329649 C2.69355859,85.2858666 2.64082191,85.2277786 2.59687468,85.1696907" id="Fill-6" fill="#929AA1"></path>
                    </g>
                </g>
            </g>
        </g>
    </g>
</svg>