<?xml version="1.0" encoding="UTF-8"?>
<svg width="40px" height="40px" viewBox="0 0 40 40" version="1.1" xmlns="http://www.w3.org/2000/svg" xmlns:xlink="http://www.w3.org/1999/xlink">
    <!-- Generator: Sketch 64 (93537) - https://sketch.com -->
    <title>instagram_icon</title>
    <desc>Created with Sketch.</desc>
    <g id="Jules-Design---Website" stroke="none" stroke-width="1" fill="none" fill-rule="evenodd">
        <g id="instagram_icon">
            <circle id="Oval" fill="#FFFFFF" opacity="0.00916108631" cx="20" cy="20" r="20"></circle>
            <path d="M20.5008906,11 C17.9208221,11 17.597027,11.0112813 16.5836832,11.0573959 C15.5723185,11.1037083 14.8819779,11.2638229 14.27793,11.49875 C13.6531006,11.7413959 13.1230742,12.0659791 12.595027,12.5942188 C12.066584,13.1222605 11.7419974,13.6522812 11.4985573,14.2769063 C11.263034,14.8811458 11.1027198,15.5716771 11.0571985,16.5826354 C11.0118751,17.5959688 11,17.9199584 11,20.5 C11,23.0800417 11.0114793,23.4028438 11.0573965,24.4161771 C11.1039073,25.4275313 11.2640236,26.1178646 11.4987552,26.7219062 C11.7416015,27.3467292 12.0661882,27.8767501 12.5944332,28.4047918 C13.1222826,28.9332292 13.6523089,29.2586043 14.2767425,29.5012501 C14.8811863,29.7361771 15.5717247,29.8962917 16.5828915,29.9426043 C17.5962354,29.9887188 17.9198325,30 20.4997031,30 C23.0799696,30 23.402775,29.9887188 24.4161189,29.9426043 C25.4274836,29.8962917 26.1186158,29.7361771 26.7230596,29.5012501 C27.3476911,29.2586043 27.8769258,28.9332292 28.404775,28.4047918 C28.9332181,27.8767501 29.2578048,27.3467292 29.5012448,26.7221043 C29.7347889,26.1178646 29.8951031,25.4273334 29.9426035,24.416375 C29.9881249,23.4030417 30,23.0800417 30,20.5 C30,17.9199584 29.9881249,17.5961667 29.9426035,16.5828334 C29.8951031,15.5714792 29.7347889,14.8811458 29.5012448,14.2771041 C29.2578048,13.6522812 28.9332181,13.1222605 28.404775,12.5942188 C27.8763321,12.0657813 27.347889,11.7411979 26.7224659,11.49875 C26.1168346,11.2638229 25.4260982,11.1037083 24.4147334,11.0573959 C23.4013896,11.0112813 23.0787821,11 20.4979219,11 L20.5008906,11 Z M19.6486526,12.7119792 C19.9015928,12.7115834 20.1838249,12.7119792 20.5008906,12.7119792 C23.037417,12.7119792 23.3380556,12.7210833 24.3397223,12.7666041 C25.2659819,12.8089583 25.7686955,12.9637292 26.103574,13.0937605 C26.5469119,13.2659479 26.8629882,13.4717813 27.1952937,13.8042813 C27.5277972,14.1367812 27.7336326,14.4534479 27.9062177,14.8967813 C28.0362504,15.2312605 28.1912207,15.7339688 28.2333775,16.6602187 C28.2788987,17.6616771 28.2887947,17.9625104 28.2887947,20.497823 C28.2887947,23.0331354 28.2788987,23.3339688 28.2333775,24.3354271 C28.1910228,25.2616771 28.0362504,25.7643855 27.9062177,26.0988647 C27.7340285,26.542198 27.5277972,26.8578751 27.1952937,27.1901772 C26.8627902,27.5226771 26.5471099,27.7285104 26.103574,27.9006979 C25.7690914,28.031323 25.2659819,28.1856979 24.3397223,28.2280521 C23.3382535,28.273573 23.037417,28.2834688 20.5008906,28.2834688 C17.9641663,28.2834688 17.6635278,28.273573 16.6620589,28.2280521 C15.7357994,28.1853022 15.2330858,28.0305313 14.8980093,27.9005 C14.4546714,27.7283126 14.1380015,27.5224792 13.805498,27.1899792 C13.4729945,26.8574792 13.267159,26.5416042 13.0945739,26.098073 C12.9645413,25.7635938 12.8095709,25.2608854 12.7674143,24.3346354 C12.721893,23.3331771 12.7127887,23.0323438 12.7127887,20.4954479 C12.7127887,17.9585521 12.721893,17.6593021 12.7674143,16.6578438 C12.8097689,15.7315938 12.9645413,15.2288854 13.0945739,14.8940105 C13.2667632,14.4506771 13.4729945,14.1340104 13.805498,13.8015104 C14.1380015,13.4690104 14.4546714,13.2631771 14.8980093,13.0905938 C15.2328878,12.9599687 15.7357994,12.8055938 16.6620589,12.7630417 C17.5384431,12.7234583 17.8780717,12.7115834 19.6486526,12.7096041 L19.6486526,12.7119792 Z M25.5719643,14.289375 C24.9425827,14.289375 24.4319524,14.7994063 24.4319524,15.4289792 C24.4319524,16.0583542 24.9425827,16.5689792 25.5719643,16.5689792 C26.2013459,16.5689792 26.7119762,16.0583542 26.7119762,15.4289792 C26.7119762,14.7996042 26.2013459,14.2889792 25.5719643,14.2889792 L25.5719643,14.289375 Z M20.5008906,15.6213542 C17.806623,15.6213542 15.622194,17.8057604 15.622194,20.5000001 C15.622194,23.1942396 17.806623,25.3776563 20.5008906,25.3776563 C23.1951583,25.3776563 25.3787956,23.1942396 25.3787956,20.5000001 C25.3787956,17.8057604 23.1949604,15.6213542 20.5006928,15.6213542 L20.5008906,15.6213542 Z M20.5008906,17.3333333 C22.2497005,17.3333333 23.6675903,18.7510104 23.6675903,20.5000001 C23.6675903,22.2487917 22.2497005,23.6666667 20.5008906,23.6666667 C18.7518829,23.6666667 17.334191,22.2487917 17.334191,20.5000001 C17.334191,18.7510104 18.7518829,17.3333333 20.5008906,17.3333333 Z" id="Shape" fill="#F8F8F8" fill-rule="nonzero"></path>
        </g>
    </g>
</svg>