<?xml version="1.0" encoding="UTF-8"?>
<svg width="156px" height="41px" viewBox="0 0 156 41" version="1.1" xmlns="http://www.w3.org/2000/svg" xmlns:xlink="http://www.w3.org/1999/xlink">
    <title>logo / login</title>
    <g id="Page-1" stroke="none" stroke-width="1" fill="none" fill-rule="evenodd">
        <g id="Home-Page" transform="translate(-120.000000, -22.000000)">
            <g id="logo" transform="translate(120.000000, 22.111111)">
                <polygon id="Rectangle" fill="#FFFFFF" points="61.2983118 0.103359173 92.9482401 1.65826311 114.567331 0.698259798 115.348837 13.4567562 114.567331 25.5304432 115.348837 38.3929662 101.187085 39.379845 84.0521704 38.3929662 60.5684755 38.3929662 61.8944614 18.2198901"></polygon>
                <path d="M13.2426114,35.245478 L13.2426114,11.4552645 L18.7317358,11.4552645 L18.7317358,4.2377261 L0.620155039,4.2377261 L0.620155039,11.4552645 L6.00809735,11.4552645 L6.00809735,35.245478 L13.2426114,35.245478 Z M27.9129918,35.245478 L27.9129918,24.4317446 L29.4307221,24.4317446 C29.9197685,24.4317446 30.3666557,24.6077821 30.7713838,24.9598572 C31.1761118,25.3119322 31.420635,25.7394519 31.5049534,26.2424162 L31.5302489,26.5693431 L32.7697286,35.245478 L40.0042427,35.245478 L38.764763,26.3933055 L38.7394675,26.1921198 C38.4865124,24.4149791 37.7613747,22.7887277 36.5640541,21.3133656 C38.0311934,19.6368178 38.764763,17.6836396 38.764763,15.453831 L38.764763,13.2156397 C38.764763,10.7343489 37.8878522,8.62189865 36.1340306,6.87828892 C34.3633453,5.13467918 32.238523,4.25449158 29.7595636,4.2377261 L20.6531822,4.2377261 L20.6531822,35.245478 L27.9129918,35.245478 Z M29.7089726,17.2393544 L27.9129918,17.2393544 L27.9129918,11.4552645 L29.7089726,11.4552645 C30.2148827,11.4552645 30.6449063,11.631302 30.9990433,11.983377 C31.3531804,12.3354521 31.5302489,12.754589 31.5302489,13.2407879 L31.5302489,15.4286828 C31.5302489,15.9316471 31.3531804,16.3591668 30.9990433,16.7112419 C30.6449063,17.0465514 30.2148827,17.222589 29.7089726,17.2393544 Z M55.2058286,35.245478 L55.2058286,23.6521499 C56.8247409,22.9312343 58.1148116,21.8414782 59.0760407,20.3828816 C60.0709972,18.890754 60.5684755,17.2393544 60.5684755,15.4286828 L60.5684755,4.2377261 L53.3339614,4.2377261 L53.3339614,15.4286828 C53.3339614,15.9316471 53.1568928,16.3591668 52.8027558,16.7112419 C52.4486187,17.0633169 52.0185952,17.2393544 51.5126851,17.2393544 C51.0236387,17.2393544 50.6020469,17.0633169 50.2479099,16.7112419 C49.8937728,16.3591668 49.7167043,15.9316471 49.7167043,15.4286828 L49.7167043,4.2377261 L42.4568947,4.2377261 L42.4568947,15.4286828 C42.4568947,17.2561199 42.9712366,18.9326677 43.9999205,20.4583263 C44.9948769,21.9336883 46.318675,23.0150617 47.9713145,23.7024463 L47.9713145,35.245478 L55.2058286,35.245478 Z" id="try" fill="#FFFFFF" fill-rule="nonzero"></path>
                <path d="M70.9056202,35.1947797 L70.9056202,12.2791352 C70.9056202,12.2115374 70.9140542,12.1523894 70.9309222,12.101691 L70.9309222,12.0256435 C70.9477902,11.9749452 70.9562242,11.9411463 70.9562242,11.9242469 C70.9562242,11.9242469 70.9646582,11.8988977 70.9815262,11.8481994 C70.9815262,11.7806016 70.9899602,11.7468027 71.0068281,11.7468027 L71.0321301,11.6454061 C71.0489981,11.5947077 71.0574321,11.5693586 71.0574321,11.5693586 C71.0743001,11.5355597 71.0996021,11.4933111 71.1333381,11.4426128 L71.1333381,11.4172636 C71.1502061,11.3834647 71.1755081,11.3412161 71.2092441,11.2905178 L71.2345461,11.2570569 L71.2464562,11.2426261 L71.2542254,11.2285532 C71.2692192,11.2022651 71.2879614,11.1722217 71.310452,11.1384228 L71.335754,11.1384228 L71.335754,11.1130736 L71.436962,11.011677 L71.436962,10.9863278 C71.487566,10.9525289 71.529736,10.91873 71.563472,10.8849311 C71.9008318,10.5976406 72.2887957,10.4539954 72.7273636,10.4539954 C73.2334034,10.4539954 73.6635372,10.6314395 74.0177651,10.9863278 C74.371993,11.3412161 74.5491069,11.7721519 74.5491069,12.2791352 L74.5491069,35.1947797 L81.7854765,35.1947797 L81.7854765,12.2791352 C81.7854765,11.7721519 81.9625904,11.3412161 82.3168183,10.9863278 C82.6710462,10.6314395 83.10118,10.4539954 83.6072199,10.4539954 C84.0963917,10.4539954 84.5180915,10.6314395 84.8723194,10.9863278 C85.2265473,11.3412161 85.4036612,11.7721519 85.4036612,12.2791352 L85.4036612,35.1947797 L92.6653328,35.1947797 L92.6653328,12.2791352 C92.6653328,9.77801764 91.7797631,7.64023812 90.0086237,5.86579662 C88.2374843,4.09135512 86.103683,3.20413437 83.6072199,3.20413437 C81.5830605,3.20413437 79.7697512,3.81251431 78.1672917,5.0292742 C76.6491722,3.88011208 74.9455048,3.27173214 73.0562894,3.20413437 L72.7020616,3.20413437 C70.2055984,3.22103381 68.0802311,4.10825456 66.3259597,5.86579662 C64.5716883,7.62333868 63.6861186,9.75266848 63.6692506,12.253786 L63.6692506,35.1947797 L70.9056202,35.1947797 Z M112.248062,35.245478 L112.248062,27.9702679 L103.544177,27.9702679 L103.544177,24.3199882 L110.805849,24.3199882 L110.805849,17.0447781 L103.544177,17.0447781 L103.544177,11.2144703 L112.248062,11.2144703 L112.248062,3.93926013 L96.2825055,3.93926013 L96.2825055,35.245478 L112.248062,35.245478 Z" id="me" fill="#1B191A" fill-rule="nonzero"></path>
                <path d="M123.52379,35.4926235 L123.52379,19.2309439 L127.11944,27.7550068 L127.11944,35.4926235 L134.260801,35.4926235 L134.260801,4.2377261 L127.11944,4.2377261 L127.11944,12.9393737 L123.52379,4.41531074 L123.52379,4.2377261 L116.382429,4.2377261 L116.382429,35.4926235 L123.52379,35.4926235 Z M146.719729,36.2790698 C149.200062,36.2790698 151.314171,35.3911465 153.062056,33.6153001 C154.793295,31.8394537 155.658915,29.6999815 155.658915,27.1968837 L155.658915,4.2377261 L148.517554,4.2377261 L148.517554,27.1968837 C148.517554,27.6873556 148.342765,28.1101761 147.993188,28.4653454 C147.643611,28.8205147 147.219125,28.9980994 146.719729,28.9980994 C146.236979,28.9980994 145.820816,28.8205147 145.471239,28.4653454 C145.121662,28.1101761 144.946873,27.6873556 144.946873,27.1968837 L144.946873,4.2377261 L137.780543,4.2377261 L137.780543,27.1968837 C137.780543,29.6999815 138.654486,31.8394537 140.402371,33.6153001 C142.150257,35.3911465 144.256043,36.2790698 146.719729,36.2790698 Z" id="nu" fill="#FFFFFF" fill-rule="nonzero"></path>
            </g>
        </g>
    </g>
</svg>