<?xml version="1.0" encoding="UTF-8"?>
<svg width="1441px" height="175px" viewBox="0 0 1441 175" version="1.1" xmlns="http://www.w3.org/2000/svg" xmlns:xlink="http://www.w3.org/1999/xlink">
    <title>Combined Shape</title>
    <g id="Page-1" stroke="none" stroke-width="1" fill="none" fill-rule="evenodd">
        <path d="M0,174.334831 L0,1.0272466 L3.71626187,3.15326133 C7.0747386,5.07459283 11.2402211,4.88606699 14.4114072,2.66920907 L14.4114072,2.66920907 L16.8702582,0.950318099 C18.611528,-0.266938672 20.9319026,-0.250882532 22.6561605,0.990354421 L22.6561605,0.990354421 L24.904908,2.60915427 C27.9760772,4.81998862 32.1090219,4.84858708 35.2104919,2.68046513 L35.2104919,2.68046513 L37.6270751,0.991121996 C39.3967109,-0.245964397 41.7605443,-0.207357154 43.4888377,1.08685907 L43.4888377,1.08685907 L45.5217073,2.60915427 C48.4731179,4.81929024 52.4998841,4.9197174 55.557798,2.85945338 L55.557798,2.85945338 L58.5193994,0.864079726 C60.2551924,-0.305407665 62.5357129,-0.270003544 64.2343665,0.952802185 L64.2343665,0.952802185 L66.5352786,2.60915427 C69.6064464,4.81998854 73.7393899,4.84858739 76.840859,2.6804661 L76.840859,2.6804661 L79.275808,0.978284069 C81.0365512,-0.252585795 83.3867569,-0.221129687 85.1139263,1.05642382 L85.1139263,1.05642382 L87.2131171,2.60915427 C90.2014819,4.81958937 94.2609454,4.89829491 97.3327447,2.80535526 L97.3327447,2.80535526 L100.143934,0.889979902 C101.881494,-0.293889614 104.17405,-0.264264141 105.880438,0.96410969 L105.880438,0.96410969 L108.165643,2.60915427 C111.236811,4.8199887 115.369755,4.84858832 118.471225,2.68046803 L118.471225,2.68046803 L120.946184,0.950317465 C122.687455,-0.266938877 125.00783,-0.250881626 126.732087,0.990356552 L126.732087,0.990356552 L128.980829,2.60915427 C132.051994,4.81998853 136.184936,4.84858894 139.286404,2.68046998 L139.286404,2.68046998 L141.761366,0.950317465 C143.502637,-0.266938877 145.823012,-0.250881626 147.547269,0.990356552 L147.547269,0.990356552 L149.796011,2.60915427 C152.867177,4.81998853 157.000118,4.84858894 160.101586,2.68046998 L160.101586,2.68046998 L162.572192,0.953362807 C164.31559,-0.265380659 166.639223,-0.247658427 168.363829,0.997535326 L168.363829,0.997535326 L170.595937,2.60915427 C173.671827,4.82999783 177.801851,4.91286017 180.964345,2.81717984 L180.964345,2.81717984 L183.886996,0.880435922 C185.660231,-0.294628452 187.982812,-0.219075721 189.67593,1.0687479 L189.67593,1.0687479 L191.701123,2.60915427 C194.592582,4.80846239 198.57351,4.88842566 201.550954,2.8070038 L201.550954,2.8070038 L204.206914,0.950319568 C205.948184,-0.26693804 208.268559,-0.250882554 209.992817,0.990354256 L209.992817,0.990354256 L212.241566,2.60915427 C215.312736,4.81998854 219.445682,4.84858584 222.547152,2.68046222 L222.547152,2.68046222 L225.022096,0.950319568 C226.763366,-0.26693804 229.083741,-0.250882554 230.807999,0.990354256 L230.807999,0.990354256 L233.056748,2.60915427 C236.127918,4.81998854 240.260864,4.84858584 243.362334,2.68046222 L243.362334,2.68046222 L245.837279,0.950319568 C247.578548,-0.26693804 249.898923,-0.250882554 251.623182,0.990354256 L251.623182,0.990354256 L253.87193,2.60915427 C256.943101,4.81998854 261.076046,4.84858584 264.177516,2.68046222 L264.177516,2.68046222 L266.652461,0.950319568 C268.39373,-0.26693804 270.714105,-0.250882554 272.438364,0.990354256 L272.438364,0.990354256 L274.687112,2.60915427 C277.758283,4.81998886 281.891229,4.8485877 284.992701,2.68046608 L284.992701,2.68046608 L287.46766,0.950315796 C289.20893,-0.266939731 291.529303,-0.250883392 293.25356,0.990352619 L293.25356,0.990352619 L295.502311,2.60915427 C298.573481,4.81998822 302.706427,4.84858398 305.807895,2.68045836 L305.807895,2.68045836 L308.282824,0.950323341 C310.024094,-0.26693635 312.344471,-0.250881717 314.06873,0.990355893 L314.06873,0.990355893 L316.317477,2.60915427 C319.388647,4.81998886 323.521593,4.8485877 326.623065,2.68046608 L326.623065,2.68046608 L329.098025,0.950315796 C330.839294,-0.266939731 333.159667,-0.250883392 334.883925,0.990352619 L334.883925,0.990352619 L337.132676,2.60915427 C340.203845,4.81998822 344.336791,4.84858398 347.438259,2.68045836 L347.438259,2.68045836 L349.984106,0.900747435 C351.690512,-0.292140053 353.957525,-0.30276643 355.675039,0.874071814 L355.675039,0.874071814 L356.992,1.77570743 L359.398741,3.15326133 C362.661262,5.01969764 366.685332,4.89511757 369.819678,2.85425622 L370.093887,2.66920907 L372.552738,0.950318099 C374.294008,-0.266938672 376.614382,-0.250882532 378.33864,0.990354421 L378.33864,0.990354421 L380.587388,2.60915427 C383.658557,4.81998862 387.791501,4.84858708 390.892971,2.68046513 L390.892971,2.68046513 L393.309555,0.991121996 C395.07919,-0.245964397 397.443024,-0.207357154 399.171317,1.08685907 L399.171317,1.08685907 L401.204187,2.60915427 C404.155597,4.81929024 408.182364,4.9197174 411.240278,2.85945338 L411.240278,2.85945338 L414.201879,0.864079726 C415.937672,-0.305407665 418.218192,-0.270003544 419.916846,0.952802185 L419.916846,0.952802185 L422.217758,2.60915427 C425.288926,4.81998854 429.421869,4.84858739 432.523339,2.6804661 L432.523339,2.6804661 L434.958288,0.978284069 C436.719031,-0.252585795 439.069236,-0.221129687 440.796406,1.05642382 L440.796406,1.05642382 L442.895597,2.60915427 C445.883961,4.81958937 449.943425,4.89829491 453.015224,2.80535526 L453.015224,2.80535526 L455.826413,0.889979902 C457.563974,-0.293889614 459.85653,-0.264264141 461.562918,0.96410969 L461.562918,0.96410969 L463.848122,2.60915427 C466.91929,4.8199887 471.052234,4.84858832 474.153704,2.68046803 L474.153704,2.68046803 L476.628664,0.950317465 C478.369934,-0.266938877 480.690309,-0.250881626 482.414567,0.990356552 L482.414567,0.990356552 L484.663309,2.60915427 C487.734474,4.81998853 491.867415,4.84858894 494.968883,2.68046998 L494.968883,2.68046998 L497.443846,0.950317465 C499.185116,-0.266938877 501.505491,-0.250881626 503.229749,0.990356552 L503.229749,0.990356552 L505.478491,2.60915427 C508.549656,4.81998853 512.682597,4.84858894 515.784066,2.68046998 L515.784066,2.68046998 L518.254672,0.953362807 C519.99807,-0.265380659 522.321703,-0.247658427 524.046308,0.997535326 L524.046308,0.997535326 L526.278416,2.60915427 C529.354306,4.82999783 533.48433,4.91286017 536.646824,2.81717984 L536.646824,2.81717984 L539.569475,0.880435922 C541.34271,-0.294628452 543.665292,-0.219075721 545.35841,1.0687479 L545.35841,1.0687479 L547.383602,2.60915427 C550.275061,4.80846239 554.255989,4.88842566 557.233434,2.8070038 L557.233434,2.8070038 L559.889394,0.950319568 C561.630663,-0.26693804 563.951038,-0.250882554 565.675297,0.990354256 L565.675297,0.990354256 L567.924046,2.60915427 C570.995216,4.81998854 575.128162,4.84858584 578.229632,2.68046222 L578.229632,2.68046222 L580.704576,0.950319568 C582.445846,-0.26693804 584.766221,-0.250882554 586.490479,0.990354256 L586.490479,0.990354256 L588.739228,2.60915427 C591.810398,4.81998854 595.943344,4.84858584 599.044814,2.68046222 L599.044814,2.68046222 L601.519758,0.950319568 C603.261028,-0.26693804 605.581403,-0.250882554 607.305661,0.990354256 L607.305661,0.990354256 L609.55441,2.60915427 C612.62558,4.81998854 616.758526,4.84858584 619.859996,2.68046222 L619.859996,2.68046222 L622.33494,0.950319568 C624.07621,-0.26693804 626.396585,-0.250882554 628.120843,0.990354256 L628.120843,0.990354256 L630.369592,2.60915427 C633.440763,4.81998886 637.573709,4.8485877 640.675181,2.68046608 L640.675181,2.68046608 L643.15014,0.950315796 C644.891409,-0.266939731 647.211783,-0.250883392 648.93604,0.990352619 L648.93604,0.990352619 L651.184791,2.60915427 C654.255961,4.81998822 658.388906,4.84858398 661.490374,2.68045836 L661.490374,2.68045836 L663.965304,0.950323341 C665.706574,-0.26693635 668.02695,-0.250881717 669.75121,0.990355893 L669.75121,0.990355893 L671.999956,2.60915427 C675.071127,4.81998886 679.204073,4.8485877 682.305545,2.68046608 L682.305545,2.68046608 L684.780504,0.950315796 C686.521774,-0.266939731 688.842147,-0.250883392 690.566404,0.990352619 L690.566404,0.990352619 L692.815155,2.60915427 C695.886325,4.81998822 700.019271,4.84858398 703.120738,2.68045836 L703.120738,2.68045836 L705.666585,0.900747435 C707.372991,-0.292140053 709.640005,-0.30276643 711.357519,0.874071814 L711.357519,0.874071814 L713.078,2.05270743 L715.000901,3.15326133 C718.263421,5.01969764 722.287491,4.89511757 725.421837,2.85425622 L725.696046,2.66920907 L728.154897,0.950318099 C729.896167,-0.266938672 732.216541,-0.250882532 733.940799,0.990354421 L733.940799,0.990354421 L736.189547,2.60915427 C739.260716,4.81998862 743.393661,4.84858708 746.495131,2.68046513 L746.495131,2.68046513 L748.911714,0.991121996 C750.68135,-0.245964397 753.045183,-0.207357154 754.773476,1.08685907 L754.773476,1.08685907 L756.806346,2.60915427 C759.757757,4.81929024 763.784523,4.9197174 766.842437,2.85945338 L766.842437,2.85945338 L769.804038,0.864079726 C771.539831,-0.305407665 773.820352,-0.270003544 775.519005,0.952802185 L775.519005,0.952802185 L777.819917,2.60915427 C780.891085,4.81998854 785.024029,4.84858739 788.125498,2.6804661 L788.125498,2.6804661 L790.560447,0.978284069 C792.32119,-0.252585795 794.671396,-0.221129687 796.398565,1.05642382 L796.398565,1.05642382 L798.497756,2.60915427 C801.486121,4.81958937 805.545584,4.89829491 808.617383,2.80535526 L808.617383,2.80535526 L811.428572,0.889979902 C813.166133,-0.293889614 815.458689,-0.264264141 817.165077,0.96410969 L817.165077,0.96410969 L819.450281,2.60915427 C822.52145,4.8199887 826.654393,4.84858832 829.755863,2.68046803 L829.755863,2.68046803 L832.230823,0.950317465 C833.972093,-0.266938877 836.292468,-0.250881626 838.016726,0.990356552 L838.016726,0.990356552 L840.265468,2.60915427 C843.336633,4.81998853 847.469574,4.84858894 850.571043,2.68046998 L850.571043,2.68046998 L853.046005,0.950317465 C854.787276,-0.266938877 857.107651,-0.250881626 858.831908,0.990356552 L858.831908,0.990356552 L861.08065,2.60915427 C864.151815,4.81998853 868.284757,4.84858894 871.386225,2.68046998 L871.386225,2.68046998 L873.856831,0.953362807 C875.600229,-0.265380659 877.923862,-0.247658427 879.648467,0.997535326 L879.648467,0.997535326 L881.880575,2.60915427 C884.956466,4.82999783 889.086489,4.91286017 892.248984,2.81717984 L892.248984,2.81717984 L895.171634,0.880435922 C896.94487,-0.294628452 899.267451,-0.219075721 900.960569,1.0687479 L900.960569,1.0687479 L902.985761,2.60915427 C905.87722,4.80846239 909.858148,4.88842566 912.835593,2.8070038 L912.835593,2.8070038 L915.491553,0.950319568 C917.232823,-0.26693804 919.553198,-0.250882554 921.277456,0.990354256 L921.277456,0.990354256 L923.526205,2.60915427 C926.597375,4.81998854 930.730321,4.84858584 933.831791,2.68046222 L933.831791,2.68046222 L936.306735,0.950319568 C938.048005,-0.26693804 940.36838,-0.250882554 942.092638,0.990354256 L942.092638,0.990354256 L944.341387,2.60915427 C947.412557,4.81998854 951.545503,4.84858584 954.646973,2.68046222 L954.646973,2.68046222 L957.121917,0.950319568 C958.863187,-0.26693804 961.183562,-0.250882554 962.90782,0.990354256 L962.90782,0.990354256 L965.156569,2.60915427 C968.227739,4.81998854 972.360685,4.84858584 975.462155,2.68046222 L975.462155,2.68046222 L977.937099,0.950319568 C979.678369,-0.26693804 981.998744,-0.250882554 983.723002,0.990354256 L983.723002,0.990354256 L985.971751,2.60915427 C989.042922,4.81998886 993.175868,4.8485877 996.27734,2.68046608 L996.27734,2.68046608 L998.752299,0.950315796 C1000.49357,-0.266939731 1002.81394,-0.250883392 1004.5382,0.990352619 L1004.5382,0.990352619 L1006.78695,2.60915427 C1009.85812,4.81998822 1013.99107,4.84858398 1017.09253,2.68045836 L1017.09253,2.68045836 L1019.56746,0.950323341 C1021.30873,-0.26693635 1023.62911,-0.250881717 1025.35337,0.990355893 L1025.35337,0.990355893 L1027.60212,2.60915427 C1030.67329,4.81998886 1034.80623,4.8485877 1037.9077,2.68046608 L1037.9077,2.68046608 L1040.38266,0.950315796 C1042.12393,-0.266939731 1044.44431,-0.250883392 1046.16856,0.990352619 L1046.16856,0.990352619 L1048.41731,2.60915427 C1051.48848,4.81998822 1055.62143,4.84858398 1058.7229,2.68045836 L1058.7229,2.68045836 L1061.26874,0.900747435 C1062.97515,-0.292140053 1065.24216,-0.30276643 1066.95968,0.874071814 L1066.95968,0.874071814 L1068.271,1.77270743 L1070.68338,3.15326133 C1073.9459,5.01969764 1077.96997,4.89511757 1081.10432,2.85425622 L1081.37853,2.66920907 L1083.83738,0.950318099 C1085.57865,-0.266938672 1087.89902,-0.250882532 1089.62328,0.990354421 L1089.62328,0.990354421 L1091.87203,2.60915427 C1094.9432,4.81998862 1099.07614,4.84858708 1102.17761,2.68046513 L1102.17761,2.68046513 L1104.59419,0.991121996 C1106.36383,-0.245964397 1108.72766,-0.207357154 1110.45596,1.08685907 L1110.45596,1.08685907 L1112.48883,2.60915427 C1115.44024,4.81929024 1119.467,4.9197174 1122.52492,2.85945338 L1122.52492,2.85945338 L1125.48652,0.864079726 C1127.22231,-0.305407665 1129.50283,-0.270003544 1131.20148,0.952802185 L1131.20148,0.952802185 L1133.5024,2.60915427 C1136.57356,4.81998854 1140.70651,4.84858739 1143.80798,2.6804661 L1143.80798,2.6804661 L1146.24293,0.978284069 C1148.00367,-0.252585795 1150.35388,-0.221129687 1152.08104,1.05642382 L1152.08104,1.05642382 L1154.18024,2.60915427 C1157.1686,4.81958937 1161.22806,4.89829491 1164.29986,2.80535526 L1164.29986,2.80535526 L1167.11105,0.889979902 C1168.84861,-0.293889614 1171.14117,-0.264264141 1172.84756,0.96410969 L1172.84756,0.96410969 L1175.13276,2.60915427 C1178.20393,4.8199887 1182.33687,4.84858832 1185.43834,2.68046803 L1185.43834,2.68046803 L1187.9133,0.950317465 C1189.65457,-0.266938877 1191.97495,-0.250881626 1193.69921,0.990356552 L1193.69921,0.990356552 L1195.94795,2.60915427 C1199.01911,4.81998853 1203.15205,4.84858894 1206.25352,2.68046998 L1206.25352,2.68046998 L1208.72848,0.950317465 C1210.46976,-0.266938877 1212.79013,-0.250881626 1214.51439,0.990356552 L1214.51439,0.990356552 L1216.76313,2.60915427 C1219.83429,4.81998853 1223.96724,4.84858894 1227.0687,2.68046998 L1227.0687,2.68046998 L1229.53931,0.953362807 C1231.28271,-0.265380659 1233.60634,-0.247658427 1235.33095,0.997535326 L1235.33095,0.997535326 L1237.56305,2.60915427 C1240.63895,4.82999783 1244.76897,4.91286017 1247.93146,2.81717984 L1247.93146,2.81717984 L1250.85411,0.880435922 C1252.62735,-0.294628452 1254.94993,-0.219075721 1256.64305,1.0687479 L1256.64305,1.0687479 L1258.66824,2.60915427 C1261.5597,4.80846239 1265.54063,4.88842566 1268.51807,2.8070038 L1268.51807,2.8070038 L1271.17403,0.950319568 C1272.9153,-0.26693804 1275.23568,-0.250882554 1276.95994,0.990354256 L1276.95994,0.990354256 L1279.20868,2.60915427 C1282.27985,4.81998854 1286.4128,4.84858584 1289.51427,2.68046222 L1289.51427,2.68046222 L1291.98921,0.950319568 C1293.73048,-0.26693804 1296.05086,-0.250882554 1297.77512,0.990354256 L1297.77512,0.990354256 L1300.02387,2.60915427 C1303.09504,4.81998854 1307.22798,4.84858584 1310.32945,2.68046222 L1310.32945,2.68046222 L1312.8044,0.950319568 C1314.54567,-0.26693804 1316.86604,-0.250882554 1318.5903,0.990354256 L1318.5903,0.990354256 L1320.83905,2.60915427 C1323.91022,4.81998854 1328.04316,4.84858584 1331.14463,2.68046222 L1331.14463,2.68046222 L1333.61958,0.950319568 C1335.36085,-0.26693804 1337.68122,-0.250882554 1339.40548,0.990354256 L1339.40548,0.990354256 L1341.65423,2.60915427 C1344.7254,4.81998886 1348.85835,4.8485877 1351.95982,2.68046608 L1351.95982,2.68046608 L1354.43478,0.950315796 C1356.17605,-0.266939731 1358.49642,-0.250883392 1360.22068,0.990352619 L1360.22068,0.990352619 L1362.46943,2.60915427 C1365.5406,4.81998822 1369.67355,4.84858398 1372.77501,2.68045836 L1372.77501,2.68045836 L1375.24994,0.950323341 C1376.99121,-0.26693635 1379.31159,-0.250881717 1381.03585,0.990355893 L1381.03585,0.990355893 L1383.28459,2.60915427 C1386.35577,4.81998886 1390.48871,4.8485877 1393.59018,2.68046608 L1393.59018,2.68046608 L1396.06514,0.950315796 C1397.80641,-0.266939731 1400.12679,-0.250883392 1401.85104,0.990352619 L1401.85104,0.990352619 L1404.09979,2.60915427 C1407.17096,4.81998822 1411.30391,4.84858398 1414.40538,2.68045836 L1414.40538,2.68045836 L1416.95122,0.900747435 C1418.65763,-0.292140053 1420.92464,-0.30276643 1422.64216,0.874071814 L1422.64216,0.874071814 L1425.57836,2.88595503 C1428.64252,4.98551146 1432.61795,5.21368136 1435.9022,3.47849207 L1435.9022,3.47849207 L1440.54176,1.0272466 L1440.54176,174.334831 L0,174.334831 Z" id="Combined-Shape" fill="#1B191A"></path>
    </g>
</svg>