<?xml version="1.0" encoding="UTF-8"?>
<svg width="40px" height="40px" viewBox="0 0 40 40" version="1.1" xmlns="http://www.w3.org/2000/svg" xmlns:xlink="http://www.w3.org/1999/xlink">
    <!-- Generator: Sketch 64 (93537) - https://sketch.com -->
    <title>twitter_icon</title>
    <desc>Created with Sketch.</desc>
    <g id="Jules-Design---Website" stroke="none" stroke-width="1" fill="none" fill-rule="evenodd">
        <g id="twitter_icon">
            <circle id="Oval" fill="#FFFFFF" opacity="0.00916108631" cx="20" cy="20" r="20"></circle>
            <path d="M20.25447,16.7242192 L20.2913203,17.3297587 L19.6771484,17.255611 C17.4415628,16.9713782 15.4884963,16.0074582 13.8302322,14.3885669 L13.0195253,13.5853003 L12.8107069,14.1784818 C12.3685031,15.5007823 12.6510222,16.8972305 13.57228,17.8364346 C14.0636175,18.3554684 13.9530666,18.4296161 13.1055094,18.1206674 C12.8107069,18.0218038 12.5527547,17.9476562 12.5281878,17.98473 C12.4422038,18.0712356 12.7370062,19.1958089 12.9703916,19.6406951 C13.2897609,20.2585925 13.9407831,20.864132 14.6532226,21.2225125 L15.255111,21.5067453 L14.5426716,21.5191033 C13.8547991,21.5191033 13.8302322,21.5314612 13.9039328,21.7909782 C14.1496016,22.5942448 15.1199931,23.4469432 16.2009356,23.8176817 L16.9625088,24.0771986 L16.2992032,24.472653 C15.3165282,25.0411186 14.161885,25.3624253 13.0072419,25.3871412 C12.4544872,25.3994991 12,25.4489309 12,25.4860048 C12,25.6095842 13.4985793,26.3016294 14.3707034,26.5735042 C16.9870757,27.3767709 20.0947853,27.0307483 22.4286385,25.659016 C24.0869025,24.6827381 25.7451666,22.7425401 26.5190232,20.864132 C26.93666,19.8631382 27.354297,18.0341618 27.354297,17.1567475 C27.354297,16.5882818 27.3911473,16.5141341 28.0790198,15.8344469 C28.4843732,15.4389926 28.8651598,15.0064644 28.9388604,14.8828849 C29.0616948,14.6480839 29.0494113,14.6480839 28.422956,14.858169 C27.3788638,15.2289075 27.2314626,15.1794756 27.7473669,14.623368 C28.1281535,14.2279136 28.5826406,13.5111526 28.5826406,13.3010675 C28.5826406,13.2639936 28.3983891,13.3257834 28.1895707,13.4370049 C27.9684688,13.5605844 27.4771313,13.7459536 27.1086282,13.8571752 L26.4453226,14.0672603 L25.8434341,13.659448 C25.5117813,13.4370049 25.0450106,13.1898459 24.7993419,13.1156982 C24.1728866,12.9426869 23.2147784,12.9674028 22.6497404,13.16513 C21.1143107,13.7212377 20.1439191,15.1547597 20.25447,16.7242192 Z" id="Shape" fill="#F8F8F8"></path>
        </g>
    </g>
</svg>