<?xml version="1.0" encoding="UTF-8"?>
<svg width="216px" height="74px" viewBox="0 0 216 74" version="1.1" xmlns="http://www.w3.org/2000/svg" xmlns:xlink="http://www.w3.org/1999/xlink">
    <!-- Generator: Sketch 64 (93537) - https://sketch.com -->
    <title>logo / login</title>
    <desc>Created with Sketch.</desc>
    <g id="Page-1" stroke="none" stroke-width="1" fill="none" fill-rule="evenodd">
        <g id="Landing-Page-2" transform="translate(-612.000000, -334.000000)">
            <g id="Group" transform="translate(516.000000, 254.000000)">
                <g id="logo-/-login" transform="translate(96.000000, 80.545455)">
                    <path d="M88.7542969,70.0671875 L88.7542969,68.4558594 L85.2931641,68.4558594 L85.2931641,70.0671875 L88.7542969,70.0671875 Z M99.1892578,72.8 L99.1892578,71.15 L95.7603516,71.15 L95.7603516,68.7201172 L98.9507812,68.7201172 L98.9507812,67.0830078 L95.7603516,67.0830078 L95.7603516,65.0140625 L99.1892578,65.0140625 L99.1892578,63.3769531 L93.7623047,63.3769531 L93.7623047,72.8 L99.1892578,72.8 Z M103.243359,72.9289062 C104.334766,72.9289062 105.186621,72.6839844 105.798926,72.1941406 C106.41123,71.7042969 106.717383,71.0339844 106.717383,70.1832031 C106.717383,69.56875 106.554102,69.0499023 106.227539,68.6266602 C105.900977,68.203418 105.297266,67.78125 104.416406,67.3601562 C103.750391,67.0421875 103.328223,66.8219727 103.149902,66.6995117 C102.971582,66.5770508 102.841602,66.450293 102.759961,66.3192383 C102.67832,66.1881836 102.6375,66.0345703 102.6375,65.8583984 C102.6375,65.5748047 102.738477,65.3449219 102.94043,65.16875 C103.142383,64.9925781 103.432422,64.9044922 103.810547,64.9044922 C104.128516,64.9044922 104.451855,64.9453125 104.780566,65.0269531 C105.109277,65.1085937 105.525,65.2525391 106.027734,65.4587891 L106.027734,65.4587891 L106.672266,63.9054687 C106.186719,63.6949219 105.721582,63.5316406 105.276855,63.415625 C104.832129,63.2996094 104.364844,63.2416016 103.875,63.2416016 C102.878125,63.2416016 102.097168,63.4800781 101.532129,63.9570312 C100.96709,64.4339844 100.68457,65.0892578 100.68457,65.9228516 C100.68457,66.3654297 100.770508,66.7521484 100.942383,67.0830078 C101.114258,67.4138672 101.344141,67.7039062 101.632031,67.953125 C101.919922,68.2023437 102.351758,68.4623047 102.927539,68.7330078 C103.541992,69.0251953 103.949121,69.2378906 104.148926,69.3710937 C104.34873,69.5042969 104.500195,69.6428711 104.60332,69.7868164 C104.706445,69.9307617 104.758008,70.0951172 104.758008,70.2798828 C104.758008,70.6107422 104.640918,70.8599609 104.406738,71.0275391 C104.172559,71.1951172 103.836328,71.2789062 103.398047,71.2789062 C103.032812,71.2789062 102.62998,71.2208984 102.189551,71.1048828 C101.749121,70.9888672 101.210937,70.7890625 100.575,70.5054687 L100.575,70.5054687 L100.575,72.3617187 C101.348437,72.7398437 102.237891,72.9289062 103.243359,72.9289062 Z M112.060547,72.8 L112.060547,65.0398437 L114.619336,65.0398437 L114.619336,63.3769531 L107.503711,63.3769531 L107.503711,65.0398437 L110.0625,65.0398437 L110.0625,72.8 L112.060547,72.8 Z M115.979297,72.9740234 C116.331641,72.9740234 116.606641,72.8762695 116.804297,72.6807617 C117.001953,72.4852539 117.100781,72.2177734 117.100781,71.8783203 C117.100781,71.5259766 117.003027,71.2552734 116.80752,71.0662109 C116.612012,70.8771484 116.335937,70.7826172 115.979297,70.7826172 C115.609766,70.7826172 115.32832,70.875 115.134961,71.0597656 C114.941602,71.2445312 114.844922,71.5173828 114.844922,71.8783203 C114.844922,72.2263672 114.94375,72.4959961 115.141406,72.687207 C115.339062,72.878418 115.618359,72.9740234 115.979297,72.9740234 Z M128.399414,72.8 L128.399414,71.1242187 L124.29375,71.1242187 L124.29375,71.0339844 L125.505469,69.8931641 C126.313281,69.1541016 126.877246,68.5847656 127.197363,68.1851562 C127.51748,67.7855469 127.753809,67.3956055 127.906348,67.015332 C128.058887,66.6350586 128.135156,66.2279297 128.135156,65.7939453 C128.135156,65.2955078 128.010547,64.8529297 127.761328,64.4662109 C127.512109,64.0794922 127.161914,63.7787109 126.710742,63.5638672 C126.25957,63.3490234 125.739648,63.2416016 125.150977,63.2416016 C124.704102,63.2416016 124.300195,63.2856445 123.939258,63.3737305 C123.57832,63.4618164 123.245312,63.5875 122.940234,63.7507812 C122.635156,63.9140625 122.250586,64.1933594 121.786523,64.5886719 L121.786523,64.5886719 L122.869336,65.8712891 C123.243164,65.5619141 123.601953,65.3234375 123.945703,65.1558594 C124.289453,64.9882812 124.643945,64.9044922 125.00918,64.9044922 C125.357227,64.9044922 125.635449,64.996875 125.843848,65.1816406 C126.052246,65.3664062 126.156445,65.6478516 126.156445,66.0259766 C126.156445,66.2794922 126.10918,66.5244141 126.014648,66.7607422 C125.920117,66.9970703 125.76543,67.2538086 125.550586,67.530957 C125.335742,67.8081055 124.878125,68.3054687 124.177734,69.0230469 L124.177734,69.0230469 L121.812305,71.4142578 L121.812305,72.8 L128.399414,72.8 Z M132.582422,72.9289062 C133.703906,72.9289062 134.534277,72.5335937 135.073535,71.7429687 C135.612793,70.9523437 135.882422,69.7341797 135.882422,68.0884766 C135.882422,66.4986328 135.604199,65.2912109 135.047754,64.4662109 C134.491309,63.6412109 133.669531,63.2287109 132.582422,63.2287109 C131.465234,63.2287109 130.638086,63.6229492 130.100977,64.4114258 C129.563867,65.1999023 129.295312,66.4255859 129.295312,68.0884766 C129.295312,69.6826172 129.571387,70.8878906 130.123535,71.7042969 C130.675684,72.5207031 131.495312,72.9289062 132.582422,72.9289062 Z M132.582422,71.3240234 C132.109766,71.3240234 131.773535,71.0737305 131.57373,70.5731445 C131.373926,70.0725586 131.274023,69.2443359 131.274023,68.0884766 C131.274023,66.9326172 131.375,66.1022461 131.576953,65.5973633 C131.778906,65.0924805 132.114062,64.8400391 132.582422,64.8400391 C133.042187,64.8400391 133.37627,65.0924805 133.584668,65.5973633 C133.793066,66.1022461 133.897266,66.9326172 133.897266,68.0884766 C133.897266,69.2314453 133.794141,70.0564453 133.587891,70.5634766 C133.381641,71.0705078 133.046484,71.3240234 132.582422,71.3240234 Z M143.468555,72.8 L143.468555,71.1242187 L139.362891,71.1242187 L139.362891,71.0339844 L140.574609,69.8931641 C141.382422,69.1541016 141.946387,68.5847656 142.266504,68.1851562 C142.586621,67.7855469 142.822949,67.3956055 142.975488,67.015332 C143.128027,66.6350586 143.204297,66.2279297 143.204297,65.7939453 C143.204297,65.2955078 143.079687,64.8529297 142.830469,64.4662109 C142.58125,64.0794922 142.231055,63.7787109 141.779883,63.5638672 C141.328711,63.3490234 140.808789,63.2416016 140.220117,63.2416016 C139.773242,63.2416016 139.369336,63.2856445 139.008398,63.3737305 C138.647461,63.4618164 138.314453,63.5875 138.009375,63.7507812 C137.704297,63.9140625 137.319727,64.1933594 136.855664,64.5886719 L136.855664,64.5886719 L137.938477,65.8712891 C138.312305,65.5619141 138.671094,65.3234375 139.014844,65.1558594 C139.358594,64.9882812 139.713086,64.9044922 140.07832,64.9044922 C140.426367,64.9044922 140.70459,64.996875 140.912988,65.1816406 C141.121387,65.3664062 141.225586,65.6478516 141.225586,66.0259766 C141.225586,66.2794922 141.17832,66.5244141 141.083789,66.7607422 C140.989258,66.9970703 140.83457,67.2538086 140.619727,67.530957 C140.404883,67.8081055 139.947266,68.3054687 139.246875,69.0230469 L139.246875,69.0230469 L136.881445,71.4142578 L136.881445,72.8 L143.468555,72.8 Z M147.651562,72.9289062 C148.773047,72.9289062 149.603418,72.5335937 150.142676,71.7429687 C150.681934,70.9523437 150.951562,69.7341797 150.951562,68.0884766 C150.951562,66.4986328 150.67334,65.2912109 150.116895,64.4662109 C149.560449,63.6412109 148.738672,63.2287109 147.651562,63.2287109 C146.534375,63.2287109 145.707227,63.6229492 145.170117,64.4114258 C144.633008,65.1999023 144.364453,66.4255859 144.364453,68.0884766 C144.364453,69.6826172 144.640527,70.8878906 145.192676,71.7042969 C145.744824,72.5207031 146.564453,72.9289062 147.651562,72.9289062 Z M147.651562,71.3240234 C147.178906,71.3240234 146.842676,71.0737305 146.642871,70.5731445 C146.443066,70.0725586 146.343164,69.2443359 146.343164,68.0884766 C146.343164,66.9326172 146.444141,66.1022461 146.646094,65.5973633 C146.848047,65.0924805 147.183203,64.8400391 147.651562,64.8400391 C148.111328,64.8400391 148.44541,65.0924805 148.653809,65.5973633 C148.862207,66.1022461 148.966406,66.9326172 148.966406,68.0884766 C148.966406,69.2314453 148.863281,70.0564453 148.657031,70.5634766 C148.450781,71.0705078 148.115625,71.3240234 147.651562,71.3240234 Z M158.705273,70.0671875 L158.705273,68.4558594 L155.244141,68.4558594 L155.244141,70.0671875 L158.705273,70.0671875 Z" id="-EST.2020-" fill="#190500" fill-rule="nonzero"></path>
                    <g id="logo">
                        <polygon id="Rectangle" fill="#E91414" points="84.7230239 0.142857143 128.467746 2.29195652 158.348418 0.965094793 159.428571 18.5991594 158.348418 35.2867198 159.428571 53.064564 139.855006 54.4285714 116.172107 53.064564 83.7142857 53.064564 85.5469877 25.182491"></polygon>
                        <path d="M18.3031808,48.7142857 L18.3031808,15.832812 L25.8899348,15.832812 L25.8899348,5.85714286 L0.857142857,5.85714286 L0.857142857,15.832812 L8.30404884,15.832812 L8.30404884,48.7142857 L18.3031808,48.7142857 Z M38.5797423,48.7142857 L38.5797423,33.7681613 L40.6774623,33.7681613 C41.3533943,33.7681613 41.9710563,34.0114703 42.5304483,34.4980883 C43.0898403,34.9847063 43.4278063,35.5755996 43.5443463,36.2707682 L43.5793083,36.7226277 L45.2924463,48.7142857 L55.2915783,48.7142857 L53.5784403,36.4793187 L53.5434783,36.2012513 C53.1938583,33.744989 52.1916143,31.4972773 50.5367463,29.4581161 C52.5645423,27.1408875 53.5784403,24.4413162 53.5784403,21.3594022 L53.5784403,18.265902 C53.5784403,14.8364037 52.3664243,11.9166956 49.9423923,9.50677789 C47.4950523,7.09686016 44.5582443,5.88031514 41.1319683,5.85714286 L28.5456483,5.85714286 L28.5456483,48.7142857 L38.5797423,48.7142857 Z M41.0620443,23.8272506 L38.5797423,23.8272506 L38.5797423,15.832812 L41.0620443,15.832812 C41.7612843,15.832812 42.3556383,16.076121 42.8451063,16.562739 C43.3345743,17.049357 43.5793083,17.6286641 43.5793083,18.3006604 L43.5793083,21.3246437 C43.5793083,22.0198123 43.3345743,22.6107056 42.8451063,23.0973236 C42.3556383,23.5607693 41.7612843,23.8040783 41.0620443,23.8272506 Z M76.3023417,48.7142857 L76.3023417,32.69065 C78.5399097,31.6942417 80.3229717,30.1880431 81.6515277,28.1720542 C83.0266997,26.1097208 83.7142857,23.8272506 83.7142857,21.3246437 L83.7142857,5.85714286 L73.7151537,5.85714286 L73.7151537,21.3246437 C73.7151537,22.0198123 73.4704197,22.6107056 72.9809517,23.0973236 C72.4914837,23.5839416 71.8971297,23.8272506 71.1978897,23.8272506 C70.5219577,23.8272506 69.9392577,23.5839416 69.4497897,23.0973236 C68.9603217,22.6107056 68.7155877,22.0198123 68.7155877,21.3246437 L68.7155877,5.85714286 L58.6814938,5.85714286 L58.6814938,21.3246437 C58.6814938,23.8504229 59.3923878,26.1676515 60.8141758,28.2763295 C62.1893478,30.3154907 64.0190258,31.8101031 66.3032098,32.7601668 L66.3032098,48.7142857 L76.3023417,48.7142857 Z" id="try" fill="#190500" fill-rule="nonzero"></path>
                        <path d="M98.0016965,48.6442134 L98.0016965,16.971519 C98.0016965,16.8780892 98.0133535,16.7963382 98.0366674,16.7262658 L98.0366674,16.6211573 C98.0599814,16.551085 98.0716384,16.5043701 98.0716384,16.4810127 C98.0716384,16.4810127 98.0832954,16.4459765 98.1066094,16.3759042 C98.1066094,16.2824744 98.1182664,16.2357595 98.1415803,16.2357595 L98.1765513,16.0956148 C98.1998653,16.0255425 98.2115223,15.9905063 98.2115223,15.9905063 C98.2348362,15.9437914 98.2698072,15.8853978 98.3164352,15.8153255 L98.3164352,15.7802893 C98.3397491,15.7335744 98.3747201,15.6751808 98.4213481,15.6051085 L98.456319,15.5588608 L98.4727806,15.5389154 L98.4835187,15.5194645 C98.5042422,15.4831307 98.5301466,15.4416064 98.5612319,15.3948915 L98.5962029,15.3948915 L98.5962029,15.3598553 L98.7360868,15.2197107 L98.7360868,15.1846745 C98.8060287,15.1379596 98.8643136,15.0912447 98.9109416,15.0445298 C99.3772212,14.6474533 99.9134426,14.448915 100.519606,14.448915 C101.219025,14.448915 101.813532,14.6941682 102.303125,15.1846745 C102.792719,15.6751808 103.037516,16.2707957 103.037516,16.971519 L103.037516,48.6442134 L113.039212,48.6442134 L113.039212,16.971519 C113.039212,16.2707957 113.284009,15.6751808 113.773602,15.1846745 C114.263196,14.6941682 114.857702,14.448915 115.557122,14.448915 C116.233227,14.448915 116.816077,14.6941682 117.30567,15.1846745 C117.795264,15.6751808 118.04006,16.2707957 118.04006,16.971519 L118.04006,48.6442134 L128.076728,48.6442134 L128.076728,16.971519 C128.076728,13.5146172 126.852744,10.5599005 124.404776,8.1073689 C121.956809,5.65483725 119.00759,4.42857143 115.557122,4.42857143 C112.759444,4.42857143 110.253192,5.26943942 108.038364,6.95117541 C105.940106,5.3628692 103.585394,4.52200121 100.974229,4.42857143 L100.484635,4.42857143 C97.0341664,4.45192887 94.0966052,5.6781947 91.6719515,8.1073689 C89.2472978,10.5365431 88.023314,13.4795811 88,16.9364828 L88,48.6442134 L98.0016965,48.6442134 Z M155.142857,48.7142857 L155.142857,38.658906 L143.112845,38.658906 L143.112845,33.613698 L153.149512,33.613698 L153.149512,23.5583183 L143.112845,23.5583183 L143.112845,15.5 L155.142857,15.5 L155.142857,5.44462025 L133.076177,5.44462025 L133.076177,48.7142857 L155.142857,48.7142857 Z" id="me" fill="#FFFFFF" fill-rule="nonzero"></path>
                        <path d="M170.727524,49.055876 L170.727524,26.5799118 L175.697226,38.3613845 L175.697226,49.055876 L185.567607,49.055876 L185.567607,5.85714286 L175.697226,5.85714286 L175.697226,17.8840629 L170.727524,6.1025902 L170.727524,5.85714286 L160.857143,5.85714286 L160.857143,49.055876 L170.727524,49.055876 Z M202.787625,50.1428571 C206.215799,50.1428571 209.1378,48.9156204 211.553628,46.4611469 C213.946447,44.0066735 215.142857,41.0496173 215.142857,37.5899785 L215.142857,5.85714286 L205.272476,5.85714286 L205.272476,37.5899785 C205.272476,38.2678807 205.030894,38.8522792 204.547728,39.3431738 C204.064563,39.8340685 203.477862,40.0795159 202.787625,40.0795159 C202.120397,40.0795159 201.5452,39.8340685 201.062034,39.3431738 C200.578869,38.8522792 200.337286,38.2678807 200.337286,37.5899785 L200.337286,5.85714286 L190.432393,5.85714286 L190.432393,37.5899785 C190.432393,41.0496173 191.640307,44.0066735 194.056134,46.4611469 C196.471962,48.9156204 199.382459,50.1428571 202.787625,50.1428571 Z" id="nu" fill="#190500" fill-rule="nonzero"></path>
                    </g>
                </g>
            </g>
        </g>
    </g>
</svg>